HIERARCHY
ROOT Pelvis
{
	OFFSET 0.000000 0.000000 0.000000
	CHANNELS 6 Xposition Yposition Zposition Xrotation Yrotation Zrotation
	JOINT LeftUpLeg_virtual
	{
		OFFSET 0.000000 0.000000 0.000000
		CHANNELS 3 Xrotation Yrotation Zrotation
		JOINT LeftUpLeg
		{
			OFFSET 18.735201 -5.666702 -4.541200
			CHANNELS 3 Xrotation Yrotation Zrotation
			JOINT LeftLeg
			{
				OFFSET -0.021200 -31.938179 0.493100
				CHANNELS 3 Xrotation Yrotation Zrotation
				JOINT LeftFoot
				{
					OFFSET 0.021200 -31.938179 -4.336299
					CHANNELS 3 Xrotation Yrotation Zrotation
					JOINT LeftToeBase
					{
						OFFSET 0.943001 -26.722000 15.023500
						CHANNELS 3 Xrotation Yrotation Zrotation
						End Site
						{
							OFFSET 0 0 0
						}
					}
				}
			}
		}
	}
	JOINT RightUpLeg_virtual
	{
		OFFSET 0.000000 0.000000 0.000000
		CHANNELS 3 Xrotation Yrotation Zrotation
		JOINT RightUpLeg
		{
			OFFSET -18.735201 -5.666702 -4.541200
			CHANNELS 3 Xrotation Yrotation Zrotation
			JOINT RightLeg
			{
				OFFSET 0.018946 -31.938133 0.493100
				CHANNELS 3 Xrotation Yrotation Zrotation
				JOINT RightFoot
				{
					OFFSET -0.018946 -31.938126 -4.336299
					CHANNELS 3 Xrotation Yrotation Zrotation
					JOINT RightToeBase
					{
						OFFSET -0.943001 -26.722004 15.023500
						CHANNELS 3 Xrotation Yrotation Zrotation
						End Site
						{
							OFFSET 0 0 0
						}
					}
				}
			}
		}
	}
	JOINT Hips_virtual
	{
		OFFSET 0.000000 0.000000 0.000000
		CHANNELS 3 Xrotation Yrotation Zrotation
		JOINT Hips
		{
			OFFSET -0.000000 -0.000000 -0.000000
			CHANNELS 3 Xrotation Yrotation Zrotation
			JOINT Spine
			{
				OFFSET 0.000000 10.199997 -0.299500
				CHANNELS 3 Xrotation Yrotation Zrotation
				JOINT Spine1
				{
					OFFSET 0.000000 11.900002 -1.516600
					CHANNELS 3 Xrotation Yrotation Zrotation
					JOINT Spine2
					{
						OFFSET 0.000000 13.600006 -2.842500
						CHANNELS 3 Xrotation Yrotation Zrotation
						JOINT Neck_virtual
						{
							OFFSET 0.000000 0.000000 0.000000
							CHANNELS 3 Xrotation Yrotation Zrotation
							JOINT Neck
							{
								OFFSET 0.000000 9.624100 -2.890100
								CHANNELS 3 Xrotation Yrotation Zrotation
								JOINT Head
								{
									OFFSET 0.000000 14.068802 -1.351900
									CHANNELS 3 Xrotation Yrotation Zrotation
									End Site
									{
										OFFSET 0 0 0
									}
								}
							}
						}
						JOINT LeftShoulder_virtual
						{
							OFFSET 0.000000 0.000000 0.000000
							CHANNELS 3 Xrotation Yrotation Zrotation
							JOINT LeftShoulder
							{
								OFFSET 15.263000 10.923401 -0.547700
								CHANNELS 3 Xrotation Yrotation Zrotation
								JOINT LeftArm
								{
									OFFSET 25.438599 -2.830597 -13.032500
									CHANNELS 3 Xrotation Yrotation Zrotation
									JOINT LeftForeArm
									{
										OFFSET 29.960503 0.000000 0.000000
										CHANNELS 3 Xrotation Yrotation Zrotation
										JOINT LeftHand
										{
											OFFSET 27.849251 0.000000 0.000000
											CHANNELS 3 Xrotation Yrotation Zrotation
											End Site
											{
												OFFSET 0 0 0
											}
										}
									}
								}
							}
						}
						JOINT RightShoulder_virtual
						{
							OFFSET 0.000000 0.000000 0.000000
							CHANNELS 3 Xrotation Yrotation Zrotation
							JOINT RightShoulder
							{
								OFFSET -15.263000 10.923401 -0.547700
								CHANNELS 3 Xrotation Yrotation Zrotation
								JOINT RightArm
								{
									OFFSET -25.438599 -2.830597 -13.032500
									CHANNELS 3 Xrotation Yrotation Zrotation
									JOINT RightForeArm
									{
										OFFSET -29.960503 0.000000 0.000000
										CHANNELS 3 Xrotation Yrotation Zrotation
										JOINT RightHand
										{
											OFFSET -27.849251 0.000000 0.000000
											CHANNELS 3 Xrotation Yrotation Zrotation
											End Site
											{
												OFFSET 0 0 0
											}
										}
									}
								}
							}
						}
					}
				}
			}
		}
	}
}
MOTION
Frames: 13
Frame Time: 0.03333333
-2.994778 80.144569 78.957634 0.000000 0.000000 0.000000 31.430379 13.696307 -7.977555 -2.159266 8.396171 4.463514 17.089490 21.481874 1.822916 -20.728437 1.162818 -26.453932 0.000000 0.000000 0.000000 31.430379 13.696307 -7.977555 -79.853470 -11.144962 -1.213535 71.896190 -32.146692 -1.853884 -14.403889 -0.297229 -0.131601 0.000000 0.000000 0.000000 31.430379 13.696307 -7.977555 -0.000002 -0.000000 0.000001 4.878679 0.172487 3.037361 9.757388 0.096153 4.188237 0.000000 0.000000 0.000000 9.757402 0.096159 4.188237 -1.405363 0.125889 -0.124602 0.000000 0.000000 0.000000 9.757402 0.096159 4.188237 3.226792 -20.189783 5.440778 -45.210887 -21.558420 -43.409865 106.505025 -61.972997 119.184506 0.000000 0.000000 0.000000 9.757402 0.096159 4.188237 1.497999 10.178242 -3.380644 -39.360475 5.475576 40.474243 111.651087 50.909932 -132.294098 0.000000 0.000000 0.000000 
-3.067582 79.839333 79.316612 0.000000 0.000000 0.000000 31.812654 13.674442 -8.046718 -2.839080 8.350078 4.798535 18.180908 21.445008 1.776020 -20.843477 1.095056 -26.999562 0.000000 0.000000 0.000000 31.812654 13.674442 -8.046718 -80.679642 -11.379911 -1.293735 72.885557 -32.100308 -1.863503 -14.561166 -0.264973 -0.331483 0.000000 0.000000 0.000000 31.812654 13.674442 -8.046718 -0.000001 0.000002 0.000000 4.720605 0.170323 3.031527 9.441397 0.085013 4.172061 0.000000 0.000000 0.000000 9.441399 0.085011 4.172064 -1.429936 0.120146 -0.121767 0.000000 0.000000 0.000000 9.441399 0.085011 4.172064 3.345518 -20.374552 5.851158 -45.404147 -21.632020 -43.071730 105.129561 -62.566234 117.849805 0.000000 0.000000 0.000000 9.441399 0.085011 4.172064 1.512602 10.066764 -3.702965 -39.856859 5.966723 40.669764 110.736675 51.476755 -131.206117 0.000000 0.000000 0.000000 
-3.127992 79.545105 79.653748 0.000000 0.000000 0.000000 32.234545 13.680968 -8.142266 -3.572237 8.296054 5.138677 19.248038 21.409727 1.728849 -20.918262 1.021932 -27.539043 0.000000 0.000000 0.000000 32.234545 13.680968 -8.142266 -81.466753 -11.627902 -1.398751 73.793138 -32.089315 -1.873806 -14.778340 -0.250580 -0.468891 0.000000 0.000000 0.000000 32.234545 13.680968 -8.142266 0.000001 0.000000 0.000000 4.557702 0.172174 3.040172 9.115792 0.078894 4.180703 0.000000 0.000000 0.000000 9.115795 0.078890 4.180705 -1.452684 0.118728 -0.120512 0.000000 0.000000 0.000000 9.115795 0.078890 4.180705 3.462213 -20.556776 6.238189 -45.726149 -21.783013 -42.867282 103.432464 -63.200403 116.209125 0.000000 0.000000 0.000000 9.115795 0.078890 4.180705 1.527258 9.940856 -4.054028 -40.408386 6.474588 40.823631 109.704060 52.094987 -130.008170 0.000000 0.000000 0.000000 
-3.177384 79.251282 79.988327 0.000000 0.000000 0.000000 32.666059 13.683626 -8.239744 -4.296894 8.236056 5.467916 20.273716 21.376387 1.682847 -20.954332 0.943982 -28.070860 0.000000 0.000000 0.000000 32.666059 13.683626 -8.239744 -82.239098 -11.870030 -1.541677 74.687880 -31.990957 -1.876723 -15.013616 -0.247446 -0.565910 0.000000 0.000000 0.000000 32.666059 13.683626 -8.239744 -0.000001 0.000001 -0.000001 4.392896 0.173207 3.049557 8.786290 0.069152 4.187627 0.000000 0.000000 0.000000 8.786292 0.069157 4.187629 -1.475593 0.121793 -0.120590 0.000000 0.000000 0.000000 8.786292 0.069157 4.187629 3.580654 -20.737417 6.622317 -46.132655 -21.954675 -42.797774 101.473819 -63.830713 114.352912 0.000000 0.000000 0.000000 8.786292 0.069157 4.187629 1.543036 9.816508 -4.426532 -40.990202 6.984699 41.013285 108.542293 52.751955 -128.683564 0.000000 0.000000 0.000000 
-3.225854 78.945641 80.334831 0.000000 0.000000 0.000000 33.085225 13.639139 -8.327846 -4.971693 8.173280 5.787461 21.263357 21.341018 1.637606 -20.985867 0.869356 -28.590728 0.000000 0.000000 0.000000 33.085225 13.639139 -8.327846 -83.013272 -12.103420 -1.690229 75.602899 -31.767080 -1.870635 -15.228694 -0.245601 -0.656095 0.000000 0.000000 0.000000 33.085225 13.639139 -8.327846 0.000002 0.000001 -0.000000 4.228007 0.169421 3.045920 8.456742 0.049888 4.168281 0.000000 0.000000 0.000000 8.456730 0.049888 4.168277 -1.495669 0.129049 -0.122512 0.000000 0.000000 0.000000 8.456730 0.049888 4.168277 3.700562 -20.916840 7.003156 -46.556414 -22.125476 -42.724951 99.354493 -64.436462 112.357206 0.000000 0.000000 0.000000 8.456730 0.049888 4.168277 1.562807 9.722049 -4.810984 -41.579275 7.494227 41.264004 107.227652 53.443754 -127.192561 0.000000 0.000000 0.000000 
-3.281141 78.616501 80.700409 0.000000 0.000000 0.000000 33.497017 13.541373 -8.419979 -5.598950 8.108719 6.117832 22.236968 21.295203 1.591762 -21.056765 0.812321 -29.103836 0.000000 0.000000 0.000000 33.497017 13.541373 -8.419979 -83.805144 -12.353399 -1.812545 76.549311 -31.480796 -1.861436 -15.424512 -0.236838 -0.772535 0.000000 0.000000 0.000000 33.497017 13.541373 -8.419979 -0.000004 0.000000 -0.000001 4.059497 0.160685 3.027984 8.119900 0.022532 4.122999 0.000000 0.000000 0.000000 8.119892 0.022529 4.122999 -1.507084 0.139358 -0.127669 0.000000 0.000000 0.000000 8.119892 0.022529 4.122999 3.816726 -21.095067 7.355333 -46.951963 -22.334560 -42.484685 97.126444 -65.036481 110.196223 0.000000 0.000000 0.000000 8.119892 0.022529 4.122999 1.589186 9.675212 -5.205951 -42.155419 7.989160 41.531088 105.751313 54.166259 -125.522635 0.000000 0.000000 0.000000 
-3.340487 78.258041 81.087852 0.000000 0.000000 0.000000 33.930440 13.427969 -8.532804 -6.210375 8.039901 6.472423 23.197605 21.233629 1.545549 -21.164793 0.779950 -29.627107 0.000000 0.000000 0.000000 33.930440 13.427969 -8.532804 -84.647764 -12.644039 -1.919632 77.541403 -31.217636 -1.856053 -15.619183 -0.213943 -0.947151 0.000000 0.000000 0.000000 33.930440 13.427969 -8.532804 -0.000001 -0.000001 -0.000000 3.878987 0.149506 3.003809 7.759064 -0.007660 4.068836 0.000000 0.000000 0.000000 7.759086 -0.007656 4.068835 -1.507419 0.150208 -0.135654 0.000000 0.000000 0.000000 7.759086 -0.007656 4.068835 3.925314 -21.272426 7.662585 -47.305590 -22.623113 -42.040149 94.800123 -65.650918 107.819775 0.000000 0.000000 0.000000 7.759086 -0.007656 4.068835 1.621061 9.666504 -5.608421 -42.699744 8.436528 41.772153 104.152947 54.894592 -123.735229 0.000000 0.000000 0.000000 
-3.394376 77.873169 81.500908 0.000000 0.000000 0.000000 34.413420 13.340946 -8.664443 -6.830616 7.963665 6.842710 24.118031 21.159016 1.501359 -21.244854 0.762716 -30.178877 0.000000 0.000000 0.000000 34.413420 13.340946 -8.664443 -85.592236 -12.959939 -2.062254 78.607814 -30.992697 -1.854829 -15.781053 -0.173937 -1.187509 0.000000 0.000000 0.000000 34.413420 13.340946 -8.664443 0.000002 -0.000001 0.000000 3.680397 0.137986 2.979328 7.362036 -0.037185 4.016983 0.000000 0.000000 0.000000 7.362031 -0.037190 4.016989 -1.497629 0.158126 -0.142663 0.000000 0.000000 0.000000 7.362031 -0.037190 4.016989 4.029336 -21.449217 7.939963 -47.612344 -22.969948 -41.501722 92.443113 -66.256400 105.312856 0.000000 0.000000 0.000000 7.362031 -0.037190 4.016989 1.654013 9.672769 -5.992069 -43.199160 8.802939 42.000404 102.529595 55.577403 -121.967535 0.000000 0.000000 0.000000 
-3.435068 77.469322 81.944695 0.000000 0.000000 0.000000 34.949593 13.289375 -8.803598 -7.456230 7.879102 7.215642 24.967820 21.077692 1.461194 -21.230562 0.745574 -30.766669 0.000000 0.000000 0.000000 34.949593 13.289375 -8.803598 -86.670538 -13.253013 -2.289228 79.769895 -30.739546 -1.851669 -15.821711 -0.126947 -1.445647 0.000000 0.000000 0.000000 34.949593 13.289375 -8.803598 -0.000001 -0.000001 -0.000000 3.465534 0.127238 2.955423 6.932427 -0.064501 3.968343 0.000000 0.000000 0.000000 6.932458 -0.064494 3.968344 -1.477814 0.159766 -0.144406 0.000000 0.000000 0.000000 6.932458 -0.064494 3.968344 4.133678 -21.625494 8.212006 -47.874083 -23.310170 -41.021460 90.179657 -66.795862 102.880257 0.000000 0.000000 0.000000 6.932458 -0.064494 3.968344 1.684759 9.689005 -6.316888 -43.651452 9.077207 42.236913 100.989579 56.168675 -120.359544 0.000000 0.000000 0.000000 
-3.459502 77.052353 82.418900 0.000000 0.000000 0.000000 35.523599 13.252526 -8.948770 -8.069588 7.787943 7.588701 25.740736 20.993479 1.425857 -21.116604 0.723584 -31.381553 0.000000 0.000000 0.000000 35.523599 13.252526 -8.948770 -87.850924 -13.487753 -2.612252 81.012935 -30.383021 -1.839734 -15.704543 -0.098300 -1.624296 0.000000 0.000000 0.000000 35.523599 13.252526 -8.948770 0.000000 0.000000 0.000001 3.240803 0.118855 2.933628 6.483038 -0.087373 3.923749 0.000000 0.000000 0.000000 6.483024 -0.087378 3.923746 -1.445000 0.152813 -0.139675 0.000000 0.000000 0.000000 6.483024 -0.087378 3.923746 4.239012 -21.801252 8.481801 -48.125649 -23.608873 -40.697494 88.044273 -67.233336 100.630885 0.000000 0.000000 0.000000 6.483024 -0.087378 3.923746 1.715252 9.736318 -6.566172 -44.062090 9.273861 42.439018 99.579896 56.669820 -118.954902 0.000000 0.000000 0.000000 
-3.465912 76.625435 82.910210 0.000000 0.000000 0.000000 36.129515 13.205652 -9.103329 -8.671248 7.692726 7.953748 26.448693 20.908662 1.395943 -20.945351 0.700531 -32.000946 0.000000 0.000000 0.000000 36.129515 13.205652 -9.103329 -89.051754 -13.665536 -3.006277 82.281752 -29.909231 -1.817398 -15.533384 -0.112292 -1.638189 0.000000 0.000000 0.000000 36.129515 13.205652 -9.103329 -0.000004 0.000001 0.000000 3.008275 0.115636 2.916908 6.018121 -0.103333 3.884327 0.000000 0.000000 0.000000 6.018140 -0.103325 3.884325 -1.395690 0.136040 -0.129337 0.000000 0.000000 0.000000 6.018140 -0.103325 3.884325 4.342262 -21.976668 8.735917 -48.426000 -23.889265 -40.547032 85.903487 -67.581771 98.447232 0.000000 0.000000 0.000000 6.018140 -0.103325 3.884325 1.749295 9.834257 -6.755601 -44.439864 9.426989 42.514789 98.258377 57.132135 -117.668764 0.000000 0.000000 0.000000 
-3.451838 76.190987 83.394783 0.000000 0.000000 0.000000 36.785032 13.128856 -9.256164 -9.291594 7.596900 8.276265 27.104865 20.827192 1.372415 -20.756832 0.678145 -32.594783 0.000000 0.000000 0.000000 36.785032 13.128856 -9.256164 -90.217824 -13.807285 -3.432634 83.515926 -29.367215 -1.788168 -15.476461 -0.172287 -1.483677 0.000000 0.000000 0.000000 36.785032 13.128856 -9.256164 0.000003 0.000001 -0.000000 2.762352 0.119962 2.903612 5.526493 -0.112041 3.841207 0.000000 0.000000 0.000000 5.526499 -0.112041 3.841207 -1.329724 0.109497 -0.112639 0.000000 0.000000 0.000000 5.526499 -0.112041 3.841207 4.442764 -22.151644 8.971374 -48.787748 -24.184032 -40.500621 83.629007 -67.876535 96.161434 0.000000 0.000000 0.000000 5.526499 -0.112041 3.841207 1.787113 9.977399 -6.898711 -44.790717 9.580104 42.400513 96.959590 57.610590 -116.374921 0.000000 0.000000 0.000000 
-3.416945 75.750984 83.850281 0.000000 0.000000 0.000000 37.508513 12.999482 -9.382455 -9.962014 7.505518 8.511945 27.722054 20.752635 1.355390 -20.575538 0.654457 -33.133593 0.000000 0.000000 0.000000 37.508513 12.999482 -9.382455 -91.373000 -13.932171 -3.865936 84.685576 -28.813795 -1.756777 -15.587508 -0.258291 -1.246555 0.000000 0.000000 0.000000 37.508513 12.999482 -9.382455 0.000001 0.000002 -0.000000 2.497597 0.131209 2.885147 4.997271 -0.115670 3.776951 0.000000 0.000000 0.000000 4.997276 -0.115674 3.776952 -1.250246 0.074982 -0.087144 0.000000 0.000000 0.000000 4.997276 -0.115674 3.776952 4.542184 -22.325508 9.197983 -49.129237 -24.481092 -40.412884 81.338674 -68.137107 93.837858 0.000000 0.000000 0.000000 4.997276 -0.115674 3.776952 1.824842 10.149203 -6.978798 -45.111514 9.767139 42.100647 95.688935 58.117970 -115.035453 0.000000 0.000000 0.000000 
